<svg xmlns="http://www.w3.org/2000/svg" width="1280" height="320" viewBox="0 0 1280 320" role="img" aria-label="korail-mobile-api">
  <rect x="1" y="1" width="1278" height="318" rx="22" fill="#f6f8fa" stroke="#d0d7de" stroke-width="2"/>
  <g font-family="'JetBrains Mono', 'SFMono-Regular', Menlo, Consolas, 'D2Coding', monospace">
    <text x="64" y="118" font-size="56" font-weight="700"><tspan fill="#0b7a75">korail</tspan><tspan fill="#1f2328">-mobile-api</tspan></text>
  </g>
  <g font-family="Pretendard, 'Apple SD Gothic Neo', 'Noto Sans KR', 'Malgun Gothic', 'Segoe UI', sans-serif">
    <text x="66" y="166" font-size="25" fill="#1f2328">코레일+ 앱과 같은 요청을 보내는 비공식 Python 클라이언트</text>
    <text x="66" y="206" font-size="19" fill="#59636e">Python 3.11+  |  타입 완비</text>
  </g>
  <rect x="600" y="196" width="120" height="4" rx="2" fill="#0b7a75" opacity="0.35"/><rect x="640" y="214" width="80" height="4" rx="2" fill="#0b7a75" opacity="0.25"/><rect x="580" y="232" width="140" height="4" rx="2" fill="#0b7a75" opacity="0.3"/>
  <g>
    <path d="M760 152 H1090 C1156 152 1210 178 1240 222 C1246 231 1242 240 1230 240 H760 Z" fill="#ffffff" stroke="#1f2328" stroke-width="3" stroke-linejoin="round"/>
    <rect x="778" y="166" width="300" height="28" rx="7" fill="#1f2328"/>
    <rect x="830" y="166" width="4" height="28" fill="#ffffff"/><rect x="882" y="166" width="4" height="28" fill="#ffffff"/><rect x="934" y="166" width="4" height="28" fill="#ffffff"/><rect x="986" y="166" width="4" height="28" fill="#ffffff"/><rect x="1038" y="166" width="4" height="28" fill="#ffffff"/>
    <path d="M1096 166 C1140 168 1172 181 1195 200 C1198 203 1196 206 1191 206 H1096 Z" fill="#1f2328"/>
    <path d="M760 214 H1226" stroke="#0b7a75" stroke-width="7" stroke-linecap="round"/>
    <rect x="760" y="240" width="476" height="9" rx="3" fill="#1f2328" opacity="0.8"/>
    <rect x="784" y="249" width="70" height="7" rx="3" fill="#8c959f"/><rect x="1110" y="249" width="70" height="7" rx="3" fill="#8c959f"/>
  </g>
  <rect x="30" y="256" width="1220" height="4" rx="2" fill="#8c959f"/>
  <rect x="40" y="262" width="14" height="6" rx="1" fill="#8c959f" opacity="0.45"/><rect x="78" y="262" width="14" height="6" rx="1" fill="#8c959f" opacity="0.45"/><rect x="116" y="262" width="14" height="6" rx="1" fill="#8c959f" opacity="0.45"/><rect x="154" y="262" width="14" height="6" rx="1" fill="#8c959f" opacity="0.45"/><rect x="192" y="262" width="14" height="6" rx="1" fill="#8c959f" opacity="0.45"/><rect x="230" y="262" width="14" height="6" rx="1" fill="#8c959f" opacity="0.45"/><rect x="268" y="262" width="14" height="6" rx="1" fill="#8c959f" opacity="0.45"/><rect x="306" y="262" width="14" height="6" rx="1" fill="#8c959f" opacity="0.45"/><rect x="344" y="262" width="14" height="6" rx="1" fill="#8c959f" opacity="0.45"/><rect x="382" y="262" width="14" height="6" rx="1" fill="#8c959f" opacity="0.45"/><rect x="420" y="262" width="14" height="6" rx="1" fill="#8c959f" opacity="0.45"/><rect x="458" y="262" width="14" height="6" rx="1" fill="#8c959f" opacity="0.45"/><rect x="496" y="262" width="14" height="6" rx="1" fill="#8c959f" opacity="0.45"/><rect x="534" y="262" width="14" height="6" rx="1" fill="#8c959f" opacity="0.45"/><rect x="572" y="262" width="14" height="6" rx="1" fill="#8c959f" opacity="0.45"/><rect x="610" y="262" width="14" height="6" rx="1" fill="#8c959f" opacity="0.45"/><rect x="648" y="262" width="14" height="6" rx="1" fill="#8c959f" opacity="0.45"/><rect x="686" y="262" width="14" height="6" rx="1" fill="#8c959f" opacity="0.45"/><rect x="724" y="262" width="14" height="6" rx="1" fill="#8c959f" opacity="0.45"/><rect x="762" y="262" width="14" height="6" rx="1" fill="#8c959f" opacity="0.45"/><rect x="800" y="262" width="14" height="6" rx="1" fill="#8c959f" opacity="0.45"/><rect x="838" y="262" width="14" height="6" rx="1" fill="#8c959f" opacity="0.45"/><rect x="876" y="262" width="14" height="6" rx="1" fill="#8c959f" opacity="0.45"/><rect x="914" y="262" width="14" height="6" rx="1" fill="#8c959f" opacity="0.45"/><rect x="952" y="262" width="14" height="6" rx="1" fill="#8c959f" opacity="0.45"/><rect x="990" y="262" width="14" height="6" rx="1" fill="#8c959f" opacity="0.45"/><rect x="1028" y="262" width="14" height="6" rx="1" fill="#8c959f" opacity="0.45"/><rect x="1066" y="262" width="14" height="6" rx="1" fill="#8c959f" opacity="0.45"/><rect x="1104" y="262" width="14" height="6" rx="1" fill="#8c959f" opacity="0.45"/><rect x="1142" y="262" width="14" height="6" rx="1" fill="#8c959f" opacity="0.45"/><rect x="1180" y="262" width="14" height="6" rx="1" fill="#8c959f" opacity="0.45"/><rect x="1218" y="262" width="14" height="6" rx="1" fill="#8c959f" opacity="0.45"/>
</svg>
